<?xml version="1.0" standalone="no"?>
<!DOCTYPE svg PUBLIC "-//W3C//DTD SVG 20010904//EN"
 "http://www.w3.org/TR/2001/REC-SVG-20010904/DTD/svg10.dtd">
<svg version="1.0" xmlns="http://www.w3.org/2000/svg"
 width="200.000000pt" height="200.000000pt" viewBox="0 0 200.000000 200.000000"
 preserveAspectRatio="xMidYMid meet">

<g transform="translate(0.000000,200.000000) scale(0.100000,-0.100000)"
fill="#000000" stroke="none">
<path d="M1300 1586 c0 -20 -8 -29 -34 -40 -38 -16 -66 -59 -66 -101 0 -35 38
-71 91 -85 62 -17 74 -24 77 -49 7 -46 -81 -47 -110 -1 -15 24 -56 27 -65 4
-8 -21 26 -65 68 -86 19 -10 36 -28 39 -40 9 -34 44 -30 48 5 2 16 9 27 18 27
9 0 29 13 45 29 56 57 28 140 -54 161 -66 17 -87 28 -87 48 0 43 57 57 87 22
19 -22 58 -27 69 -9 10 17 -16 57 -47 71 -18 8 -29 21 -31 38 -2 17 -10 26
-25 28 -19 3 -23 -1 -23 -22z"/>
<path d="M902 1509 c-324 -54 -552 -357 -511 -678 11 -92 22 -127 65 -211 36
-71 57 -100 69 -100 5 0 19 10 31 21 l23 21 -34 52 c-57 87 -79 166 -79 286
-1 124 22 205 85 300 76 114 208 204 336 230 57 12 214 9 259 -5 20 -6 22 -3
22 33 l1 39 -69 12 c-78 12 -122 13 -198 0z"/>
<path d="M1457 1257 l-18 -34 35 -64 c173 -315 -11 -710 -367 -786 -94 -20
-191 -12 -291 22 -82 28 -98 28 -116 -4 -9 -18 -5 -23 40 -46 69 -35 161 -55
257 -55 110 0 172 14 273 62 157 75 282 229 327 401 25 97 20 235 -11 333 -21
64 -95 204 -109 204 -1 0 -11 -15 -20 -33z"/>
<path d="M796 1066 c-110 -40 -201 -77 -203 -83 -5 -15 376 -177 412 -175 16
0 91 28 165 60 l135 60 5 -102 c5 -93 7 -101 25 -101 19 0 20 8 23 113 3 109
3 113 28 124 13 6 23 16 21 22 -4 12 -343 144 -385 151 -17 2 -103 -24 -226
-69z"/>
<path d="M800 751 c0 -99 -7 -90 95 -122 78 -25 256 -5 303 33 15 13 17 178 2
178 -5 0 -48 -16 -94 -35 -47 -19 -94 -35 -106 -35 -12 0 -59 16 -106 35 -46
19 -86 35 -89 35 -3 0 -5 -40 -5 -89z"/>
<path d="M611 557 c-12 -20 -38 -46 -58 -58 l-36 -23 24 -15 c31 -20 60 -49
80 -80 l15 -24 23 36 c12 20 38 46 58 58 l36 23 -24 15 c-31 20 -60 49 -80 80
l-15 24 -23 -36z"/>
</g>
</svg>
